<?xml version="1.0" encoding="UTF-8" standalone="no"?>
<!-- Created with Inkscape (http://www.inkscape.org/) -->

<svg
   version="1.1"
   id="svg1"
   width="1024"
   height="1024"
   viewBox="0 0 1024 1024"
   xmlns="http://www.w3.org/2000/svg"
   xmlns:svg="http://www.w3.org/2000/svg">
  <defs
     id="defs1" />
  <g
     id="layer1">
    <path
       style="fill:#000000"
       d="M 482.5,971.3888 C 334.27,961.92989 202.57103,888.77287 125.35585,773 c -2.75118,-4.125 -5.3117,-8.02756 -5.69003,-8.67235 -0.7525,-1.2825 18.04147,-17.52023 29.83418,-25.7763 3.85,-2.69539 8.01073,-5.79888 9.24606,-6.89664 3.14431,-2.79415 3.46302,-1.83187 1.11597,3.36947 -3.39755,7.52938 -8.95794,26.7944 -7.03359,24.36921 0.91936,-1.15863 4.49821,-5.72061 7.95299,-10.13773 10.49386,-13.41692 35.13733,-35.69826 32.82866,-29.68195 -1.2237,3.1889 -3.59793,20.58199 -3.60419,26.40354 l -0.006,5.47725 3.70047,-6.2553 c 8.46749,-14.31348 27.56136,-34.84319 41.87705,-45.02616 4.79798,-3.41289 8.8612,-6.06765 9.02937,-5.89949 0.16817,0.16817 -0.78658,3.84617 -2.12165,8.17333 -2.86354,9.28109 -6.13897,28.66176 -6.81958,40.35134 l -0.48315,8.29823 10.75696,-21.79823 c 20.70493,-41.95706 28.15198,-52.09114 45.18239,-61.48502 4.30073,-2.37226 7.83271,-4.58652 7.84883,-4.92058 0.0161,-0.33406 -5.48319,-1.04174 -12.22069,-1.57262 l -12.25,-0.96524 -8,3.24519 c -10.07411,4.08655 -44.27886,20.11691 -52.10629,24.42008 -3.24154,1.78206 -8.81871,4.84729 -12.39371,6.81163 -25.90408,14.23341 -44.24409,28.14365 -65.80794,49.91295 -9.51937,9.61006 -17.43172,17.31141 -17.583,17.11412 C 110.80942,751.68661 93.494948,713.46671 84.469861,686.5 65.936976,631.12424 59.150571,582.05965 60.337034,512.02361 c 0.979043,-57.79217 1.897094,-64.02603 10.005932,-67.94353 6.455354,-3.11868 149.304784,-45.65357 159.875124,-47.60447 3.59327,-0.66318 3.95862,-1.14426 10.88356,-14.33091 28.35204,-53.98872 74.65198,-104.54269 118.31277,-129.18331 L 365,249.80908 l 0.004,12.84546 c 0.009,30.63404 6.29909,47.83567 23.39475,63.97888 9.87604,9.32581 11.14054,9.86294 6.68703,2.84049 -7.60433,-11.99078 -13.77966,-33.12435 -14.76662,-50.53514 -0.70273,-12.39678 0.25556,-16.28493 5.3432,-21.67939 1.92272,-2.03869 3.00091,-3.87169 2.39597,-4.07333 -3.2448,-1.0816 -36.43798,-19.38875 -46.3704,-25.57482 C 304.53281,204.47053 294.52165,184.03409 312.5618,168.15452 323.02481,158.94461 353.80883,152 384.17147,152 h 10.68372 l 3.42219,-5.75 c 3.37737,-5.67471 6.90424,-12.19484 18.25604,-33.75 21.84639,-41.482623 23.74036,-44.48594 29.94951,-47.491739 9.59898,-4.646784 26.81834,-1.834583 55.72392,9.10062 12.12069,4.585353 16.20765,5.739652 17.62891,4.979018 4.39003,-2.349472 28.89535,-10.149528 36.29889,-11.553956 15.10901,-2.86613 26.30587,-1.028784 42.59511,6.989635 10.70679,5.270441 27.10213,17.063662 27.77191,19.976422 0.71996,3.130947 4.14797,40.20586 6.5648,71 1.27322,16.22284 2.66777,28.49321 3.31553,29.1726 0.6149,0.64493 5.393,2.83176 10.618,4.85961 53.4797,20.75581 76.53729,42.84725 66.54552,63.75713 -8.50559,17.79971 -43.60514,35.4686 -83.77324,42.17093 l -3.72772,0.622 13.61304,13.20886 c 27.46588,26.65042 49.90677,57.18738 68.80704,93.63079 l 9.03536,17.42193 14,4.42391 c 7.7,2.43315 19.625,6.12629 26.5,8.20697 l 12.5,3.78307 11.5,-0.87754 c 6.325,-0.48265 30.625,-2.43721 54,-4.34348 80.0253,-6.52617 94.07313,-7.64566 97.81209,-7.79476 3.10693,-0.1239 5.06176,0.8255 11.49352,5.58201 20.55509,15.20121 21.50409,17.67943 16.34203,42.67597 -1.41976,6.875 -6.44165,32.75 -11.15976,57.5 -18.81088,98.67716 -23.04051,120.1107 -34.58094,175.2382 -6.59915,31.52354 -12.75649,59.66594 -13.68297,62.53866 -2.2262,6.9028 -8.7187,16.4169 -13.85053,20.29657 -3.58684,2.71165 -21.17513,10.74581 -28.31866,12.93568 -1.34487,0.41227 -12.59487,10.99993 -25,23.52813 -53.7761,54.30959 -106.66359,87.39363 -180.55478,112.94696 -51.46318,17.7972 -120.97787,27.66044 -172,24.4046 z m 47.74469,-82.91567 c 14.44042,-4.13978 29.07664,-8.45441 32.52494,-9.58806 l 6.26962,-2.06119 -5.04734,-2.5152 C 558.69909,871.67115 556,868.03063 556,863.5292 556,825.7315 660.45871,635.0619 709.85068,504.66155 799.25033,486.00961 870.2921,476.58577 949.35556,461.75613 952.3856,461.1878 940.13036,451.86652 936,452.56814 c -1.375,0.23358 -18.7,1.79262 -38.5,3.46455 -35.11496,2.96514 -70.43862,6.03294 -115,9.98756 -12.1,1.07382 -34.95663,3.10196 -50.7925,4.50699 -15.83588,1.40502 -29.87485,2.96609 -31.19771,3.46904 -4.22201,1.6052 -2.40616,-2.74336 -30.48439,73.00372 -23.1361,62.41464 -34.06951,91.81877 -40.70966,109.48389 -4.13146,10.99114 -12.6003,33.94114 -18.81965,51 -9.73097,26.69081 -35.49882,95.852 -41.3411,110.95999 l -1.91181,4.94388 -10.37159,2.81924 c -51.41534,13.97593 -70.81227,19.01117 -73.37104,19.04634 -4.8387,0.0665 -110.72453,-26.42337 -111.18681,-27.81605 -0.17112,-0.51551 8.12579,-3.08005 18.43757,-5.69898 33.14528,-8.41804 31.5186,-7.50113 17.34963,-9.77952 -9.55742,-1.53685 -11.72726,-1.19153 -41.71215,6.63815 l -25.18863,6.57729 -21.85008,-3.53967 C 307.33253,809.68774 289.85,806.93883 280.5,805.52587 c -9.35,-1.41297 -18.2375,-2.77307 -19.75,-3.02245 -3.01882,-0.49774 -4.13748,2.75018 -1.31965,3.83148 2.85262,1.09465 41.02775,10.03148 84.06965,19.68078 152.07277,34.09224 143.35761,32.29049 153.82521,31.80148 6.05501,-0.28287 14.85521,-2.16378 33.93738,-7.25361 25.07229,-6.68758 28.35053,-7.21216 25.78998,-4.12689 -0.67784,0.81674 -2.50677,4.76512 -4.0643,8.77416 -1.90313,4.89861 -3.43145,7.39848 -4.66007,7.62245 -1.00551,0.18329 -8.81755,2.29154 -17.36009,4.68499 -31.83944,8.92077 -21.45184,10.14028 -119.46811,-14.02561 -88.72123,-21.8742 -111.98572,-27.68581 -131.31148,-32.8024 l -20.31149,-5.37756 0.63454,4.09365 c 1.07209,6.91655 1.41835,7.41126 6.28525,8.9799 10.37162,3.34287 124.56699,37.30967 178.70318,53.15431 15.05851,4.40734 44.59487,12.69496 49,13.74893 5.4089,1.29413 11.51597,0.12954 35.74469,-6.81635 z m -41.1631,-53.42382 c 3.53013,-1.07289 9.34341,-2.82263 12.91841,-3.88832 l 6.5,-1.93762 -4.5,-1.17369 c -2.475,-0.64553 -7.85265,-2.0946 -11.95033,-3.22015 -4.9507,-1.35986 -8.88901,-1.84927 -11.7384,-1.45872 -6.26973,0.85937 -24.41215,5.85924 -23.74432,6.5437 0.66816,0.68482 22.18602,6.80431 24.51464,6.97176 0.86988,0.0625 4.46988,-0.76408 8,-1.83696 z m -36.26336,-14.13217 c 8.62445,-2.24557 15.78838,-4.19041 15.91983,-4.32187 0.13146,-0.13146 -6.02279,-1.95079 -13.67612,-4.04297 l -13.91514,-3.80395 -17.67575,4.37221 -17.67575,4.3722 14.85235,3.65096 c 8.16879,2.00802 15.22077,3.69715 15.67105,3.75362 0.45029,0.0565 7.87508,-1.73463 16.49953,-3.9802 z m 82.16041,1.04802 c 11.7738,-3.39601 13.6907,-4.52497 9.416,-5.54554 -1.59205,-0.3801 -6.78893,-1.65691 -11.54861,-2.83736 -5.13705,-1.27405 -9.60738,-1.85653 -11,-1.4333 -1.29032,0.39213 -6.94189,1.96068 -12.55905,3.48565 -5.61717,1.52497 -10.00839,2.97732 -9.75827,3.22743 0.66327,0.66327 20.61563,5.88975 22.97129,6.01729 1.1,0.0596 6.71539,-1.25182 12.47864,-2.91417 z m -39.17841,-12.07673 c 17.14908,-4.56081 17.28089,-4.71125 6.64513,-7.58448 -14.91967,-4.03052 -20.64502,-3.73894 -39.44536,2.0089 l -4.5,1.37579 4.5,1.24057 c 4.00646,1.1045 20.03378,5.70236 20.80023,5.96709 0.16513,0.057 5.56513,-1.2965 12,-3.00787 z m 55.07235,-2.50812 c 1.07176,-2.35225 1.01158,-2.54637 -0.58949,-1.90147 -0.9807,0.39503 -3.58309,0.98475 -5.78309,1.31051 l -4,0.59228 4,1.23234 c 2.2,0.67778 4.26527,1.26691 4.58948,1.30918 0.32422,0.0423 1.12661,-1.10201 1.7831,-2.54284 z m -9.25138,-9.54222 c 6.21318,-1.73906 11.1178,-3.45138 10.89915,-3.80517 -0.21866,-0.35379 -4.91986,-1.71082 -10.44712,-3.01563 l -10.04956,-2.37238 -12.76183,2.83352 c -14.40427,3.1982 -16.15098,4.02661 -10.5024,4.98093 2.17318,0.36715 6.60384,1.5148 9.8459,2.55032 8.03686,2.56699 10.01944,2.46607 23.01586,-1.17159 z M 559.36971,785.75 c 0.33164,-1.2375 0.60913,-2.50981 0.61664,-2.82736 0.008,-0.31754 -2.7957,0.10896 -6.22935,0.9478 l -6.24301,1.52516 4.99301,1.1834 c 2.74615,0.65088 5.27802,1.23687 5.62637,1.30221 0.34835,0.0653 0.90471,-0.89371 1.23634,-2.13121 z m -97.24238,-3.38684 c 4.05497,-0.90026 7.51586,-1.75595 7.69087,-1.90154 0.17501,-0.14558 -4.69542,-7.08631 -10.82318,-15.42385 -6.12776,-8.33754 -13.28523,-18.5053 -15.90549,-22.59502 -4.09443,-6.3906 -7.00095,-9.23035 -20.67682,-20.20177 -8.75199,-7.02125 -19.1999,-15.4603 -23.21759,-18.75344 l -7.30487,-5.98754 5.30487,-0.27738 c 7.94929,-0.41566 8.31433,-0.69842 5.67925,-4.39906 -1.24724,-1.75158 -1.6167,-2.78822 -0.82104,-2.30366 0.79567,0.48457 9.32167,5.88516 18.94667,12.00132 9.625,6.11615 22.15405,14.01239 27.84232,17.54719 l 10.34233,6.42692 13.0513,19.50233 c 24.66637,36.85853 24.99245,37.14482 38.95722,34.20378 5.53119,-1.16489 10.26394,-2.32521 10.51721,-2.57848 0.25327,-0.25328 -2.44956,-4.43455 -6.0063,-9.29173 C 512.14734,763.47405 506.20677,754.775 502.50281,749 c -3.70396,-5.775 -8.85552,-13.65 -11.44789,-17.5 -2.59238,-3.85 -6.33295,-9.7 -8.31239,-13 -2.35779,-3.93078 -6.64133,-8.62104 -12.42075,-13.60008 C 465.4698,700.71987 456.1,692.65619 449.5,686.98062 c -6.6,-5.67557 -14.21482,-12.29379 -16.92181,-14.70715 l -4.92181,-4.38794 5.34831,0.70948 5.34831,0.70948 -2.1765,-3.05662 c -3.50668,-4.92467 -2.75973,-4.63946 9.0735,3.46458 43.26925,29.63315 46.93935,32.48044 52.66925,40.86118 28.39431,41.53048 42.03407,60.37562 43.72067,60.4059 1.44288,0.0259 20.61882,-3.90494 21.02345,-4.30956 0.16539,-0.1654 -3.17871,-5.00001 -7.43133,-10.74359 -4.25262,-5.74358 -16.17372,-22.58916 -26.49134,-37.43463 -13.01004,-18.71946 -20.05896,-27.95714 -23,-30.14173 -16.50171,-12.25741 -53.19251,-42.23154 -52.51914,-42.90491 0.18402,-0.18403 2.12196,0.0798 4.30651,0.58629 5.62416,1.30395 6.77615,1.20377 6.1103,-0.5314 -0.93982,-2.44915 -0.78766,-2.34385 28.40556,19.6571 31.47578,23.72116 24.9891,16.98259 58.08722,60.3429 7.55695,9.9 15.30184,19.51 17.21089,21.35556 l 3.47099,3.35555 2.13429,-4.82492 c 1.17386,-2.6537 2.00343,-5.63533 1.84348,-6.62583 C 574.42119,736.4714 537.84928,687.84244 532.47962,682.5 530.26841,680.3 520.17768,672.875 510.05578,666 499.93388,659.125 486.21806,649.75575 479.57616,645.17945 462.56203,633.45661 441.77604,620.63303 440,620.76357 c -4.04353,0.29722 -91.78343,37.51198 -117,49.62539 -14.01745,6.73363 -29.16795,32.05537 -35.06816,58.61104 -2.96246,13.33344 -3.31423,12.59869 6.38869,13.34451 7.88436,0.60604 8.91968,0.43507 19.75,-3.26149 6.28621,-2.14558 20.81084,-7.10362 32.27696,-11.01786 l 20.8475,-7.1168 26.46821,13.66397 c 23.01796,11.8828 26.94847,14.25421 30.1525,18.19201 28.04209,34.46411 25.39975,32.42545 38.31163,29.55882 z M 588.09444,638.48653 c 11.32695,-12.09259 25.22847,-27.01565 30.89227,-33.16235 l 10.29782,-11.17583 6.21618,-17.32417 c 3.41889,-9.5283 9.01287,-24.46868 12.43106,-33.20085 3.41819,-8.73217 5.84439,-16.22828 5.39156,-16.65803 -0.79577,-0.75521 -34.09485,-11.64488 -55.07333,-18.01043 -5.6375,-1.71059 -10.25,-3.42863 -10.25,-3.81785 0,-0.38922 3.72286,-4.14232 8.27303,-8.34023 C 619.67301,475.20836 648.27422,455.40694 675.75,441.77264 685.7875,436.79174 694,432.19886 694,431.56626 694,427.10127 660.84951,375.5 657.98104,375.5 c -3.93077,0 -50.02946,58.74502 -70.2329,89.5 l -5.58378,8.5 -1.62932,15 c -4.88656,44.98701 -16.00411,132.75489 -21.08744,166.47545 -0.78969,5.2385 -1.42876,10.87455 -1.42013,12.52455 l 0.0157,3 4.72843,-5.01347 c 2.60064,-2.7574 13.99593,-14.9074 25.32287,-27 z M 537,649.17274 c 0,-0.455 1.36122,-10.9175 3.02494,-23.25 1.66371,-12.33251 3.69842,-27.59774 4.52157,-33.92274 0.82316,-6.325 2.63301,-18.86642 4.0219,-27.86983 2.42901,-15.7459 2.57957,-20.10128 0.51919,-15.01886 -0.5326,1.31378 -2.08879,4.18869 -3.4582,6.38869 l -2.48985,4 -9.06977,-18.86236 C 529.0814,530.26335 525,521.37585 525,520.88764 c 0,-2.59912 -2.83638,0.37979 -11.79956,12.39247 -5.44986,7.30407 -10.50787,14.2393 -11.24001,15.41164 -1.15054,1.84231 -0.83207,4.34844 2.34711,18.46989 6.67512,29.64988 10.47172,47.18593 12.73868,58.83836 2.77586,14.26828 2.19293,13.26305 11.05558,19.06497 7.55154,4.9436 8.8982,5.56528 8.8982,4.10777 z M 348.72717,628.45498 c 3.72506,-1.39976 13.00014,-5.07504 20.61129,-8.16728 l 13.83846,-5.62225 -0.66659,-4.58272 C 382.1437,607.56223 378.76059,587.725 374.99231,566 368.01478,525.77299 364.7806,506.26901 360.64509,479.47808 l -2.31882,-15.02191 -15.32391,-22.97809 C 323.51944,412.26359 290.31445,365.90111 282.97688,357.66748 281.05673,355.51284 242,424.2373 242,429.77066 c 0,0.4368 6.1875,3.43251 13.75,6.65713 28.0625,11.96575 47.81417,23.05168 69.18543,38.83138 9.98485,7.37243 24.87784,19.73273 24.99074,20.74083 0.0308,0.275 -7.2525,2.65962 -16.18509,5.29915 -19.07781,5.63739 -76.70959,24.35182 -78.4221,25.46555 -1.25953,0.81913 1.66481,4.8265 18.13407,24.85006 4.92418,5.98688 19.27743,23.48524 31.89611,38.88524 28.58819,34.8894 33.46631,40.5 35.21257,40.5 0.76594,0 4.44039,-1.14526 8.16544,-2.54502 z m 93.05347,-32.36159 c 3.49092,1.1617 6.5735,1.8858 6.85019,1.60911 0.27669,-0.27669 4.06464,-10.97885 8.41767,-23.78259 l 7.91459,-23.27952 -2.68483,-3.57019 c -6.51067,-8.65768 -24.65521,-29.95527 -25.22202,-29.60496 -0.34363,0.21238 -6.6645,9.42959 -14.04637,20.48271 l -13.42158,20.09656 -4.34031,-6.77225 c -2.38717,-3.72475 -5.699,-9.4053 -7.35962,-12.62345 -1.66062,-3.21816 -3.24667,-5.62383 -3.52455,-5.34595 -0.40326,0.40325 9.05739,59.36327 11.20741,69.84609 l 0.5433,2.64895 14.65951,-5.90834 14.6595,-5.90835 z M 423.07979,523.5 c 4.07298,-4.95 10.55875,-12.57109 14.41282,-16.93576 3.85406,-4.36467 12.74489,-14.43733 19.75739,-22.3837 7.0125,-7.94636 12.75,-14.86811 12.75,-15.38167 0,-0.51356 -13.41879,-14.5159 -29.81953,-31.11631 -16.40075,-16.60041 -34.96325,-35.63902 -41.25,-42.30804 -6.28676,-6.66901 -11.52372,-12.05076 -11.63768,-11.95945 -0.11397,0.0913 0.70418,7.12278 1.8181,15.62548 C 395.57931,448.41458 396.60634,457 396.04427,457 395.7029,457 390.82829,452.28595 385.2118,446.52434 379.59531,440.76272 375,436.16896 375,436.31598 c 0,3.96024 19.06821,53.20985 28.72218,74.18402 3.54414,7.7 7.37534,16.1587 8.51376,18.7971 1.13842,2.63841 2.37778,4.43841 2.75414,4 0.37635,-0.4384 4.01672,-4.8471 8.08971,-9.7971 z m 124.21263,-3.75 c 5.10621,-15.6006 15.03021,-53.76071 14.19764,-54.59328 -0.28651,-0.28651 -10.07648,0.25027 -21.7555,1.19284 -11.67901,0.94258 -24.72206,1.98263 -28.98456,2.31123 -4.2625,0.3286 -7.75,0.73035 -7.75,0.89278 0,1.23461 38.28159,64.35076 39.06413,64.40635 0.31028,0.0221 2.663,-6.37242 5.22829,-14.20992 z m -21.92059,-70.78937 c 9.4205,-0.57166 18.59067,-1.26705 20.37817,-1.54532 l 3.25,-0.50594 v -8.83224 c 0,-9.90418 -0.22867,-10.29745 -7,-12.03888 -2.475,-0.63651 -5.2875,-1.38583 -6.25,-1.66516 -1.04488,-0.30323 -1.75,-1.48328 -1.75,-2.92869 0,-1.69474 0.52488,-2.37683 1.75,-2.27417 0.9625,0.0807 5.03306,0.0754 9.04569,-0.0118 L 552.09138,419 l -0.29569,-6.75 c -0.29427,-6.71764 -0.31007,-6.75094 -3.29569,-6.9456 -29.48868,-1.92264 -38.5,-2.70311 -38.5,-3.33445 0,-0.41766 7.0875,-1.05646 15.75,-1.41955 8.6625,-0.36309 17.66214,-0.74797 19.9992,-0.85529 l 4.24919,-0.19511 8.1e-4,-7.85183 8e-4,-7.85183 -9.25,-8.79189 c -5.0875,-4.83555 -9.025,-9.01133 -8.75,-9.27953 0.275,-0.2682 8.15,2.37628 17.5,5.87662 9.35,3.50034 17.3375,6.37196 17.75,6.38136 0.91688,0.0209 0.98247,-32.29077 0.0968,-47.66151 l -0.64416,-11.17862 -7.11612,-0.66684 c -7.06259,-0.66181 -7.24114,-0.61721 -23.73365,5.92862 -9.13964,3.6275 -17.63444,6.59545 -18.87734,6.59545 -3.01205,0 -24.88583,-11.67518 -36.80712,-19.64589 l -9.54749,-6.38356 -9.06044,3.17743 c -4.98323,1.74759 -9.377,3.44329 -9.76393,3.76823 -2.42039,2.03262 8.49526,20.56637 18.33082,31.12402 5.55841,5.96648 10.67244,11.66076 11.36452,12.65396 1.04109,1.49407 0.51045,5.86262 -3.07387,25.30581 -5.44236,29.52222 -5.45201,30.01082 -0.70874,35.89701 C 492.92722,435.78186 505.3728,450 506.68531,450 c 0.8571,0 9.26603,-0.46772 18.68652,-1.03937 z m 86.63571,-156.5017 c 18.77821,-2.32479 48.75447,-9.6468 50.40102,-12.31098 0.28056,-0.45396 -1.38409,-1.87822 -3.69922,-3.16503 -2.31514,-1.2868 -13.54891,-7.88438 -24.96393,-14.66128 L 612.99082,250 590.74541,249.99 c -23.3355,-0.0104 -31.77209,-0.47173 -82.24541,-4.49759 -39.93587,-3.18538 -69.07844,-4.48661 -99,-4.42041 l -24,0.0531 10.5,5.00992 c 78.00002,37.21659 155.43483,53.82284 216.00754,46.3238 z m -4.19618,-105.07633 5.31136,-0.54185 -0.58803,-12.67037 c -0.32341,-6.96871 -1.02603,-22.09964 -1.56136,-33.6243 C 610.438,129.02143 610,118.55036 610,117.27703 c 0,-1.87457 -0.42817,-2.22499 -2.25,-1.84144 -1.2375,0.26053 -7.48686,1.67043 -13.88746,3.1331 l -11.63745,2.6594 L 558.86254,111.228 C 526.11402,97.210342 510.75462,91.653005 491.95334,87.0189 473.98599,82.590343 465.60034,81.670359 479,85.597799 c 23.18504,6.795532 78.37662,39.832551 71.11546,42.568871 -0.74671,0.28139 -24.90452,22.47835 -43.93941,40.3729 l -5.36072,5.03958 12.70739,3.82911 c 31.45517,9.47838 64.68889,12.99401 94.28864,9.97434 z"
       id="path1" />
    <path
       d="m 819.53258,704.84169 c 33.43838,-19.5962 46.94216,-81.04039 19.43559,-88.43486 -30.05573,-8.07975 -66.66379,59.25493 -46.55132,85.62373 5.48568,7.1921 17.51258,8.43895 27.11573,2.81113 z"
       style="fill:#f90b0b;fill-opacity:1"
       id="path1-3" />
  </g>
</svg>
