<?xml version="1.0" encoding="UTF-8" standalone="no"?>
<!-- Created with Inkscape (http://www.inkscape.org/) -->

<svg
   version="1.1"
   id="svg1"
   width="1024"
   height="1024"
   viewBox="0 0 1024 1024"
   sodipodi:docname="logo.svg"
   inkscape:version="1.3.2 (091e20ef0f, 2023-11-25, custom)"
   xmlns:inkscape="http://www.inkscape.org/namespaces/inkscape"
   xmlns:sodipodi="http://sodipodi.sourceforge.net/DTD/sodipodi-0.dtd"
   xmlns="http://www.w3.org/2000/svg"
   xmlns:svg="http://www.w3.org/2000/svg">
  <defs
     id="defs1" />
  <sodipodi:namedview
     id="namedview1"
     pagecolor="#ffffff"
     bordercolor="currentColor"
     borderopacity="0.25"
     inkscape:showpageshadow="2"
     inkscape:pageopacity="0.0"
     inkscape:pagecheckerboard="0"
     showgrid="false"
     inkscape:zoom="0.40039063"
     inkscape:cx="265.99024"
     inkscape:cy="489.52195"
     inkscape:window-width="1896"
     inkscape:window-height="1026"
     inkscape:window-x="10"
     inkscape:window-y="40"
     inkscape:window-maximized="1"
     inkscape:current-layer="svg1" />
  <path
     id="path1"
     style="fill:currentColor;stroke-width:1.41193"
     d="M 409.95455,994.91091 C 284.95383,990.18745 183.57608,976.78788 170.92052,963.31664 159.19728,950.83783 191.71674,941.12393 276.91734,931.65429 l 33.34883,-3.70656 -8.49435,-7.53511 -8.49437,-7.53511 -9.32324,0.79335 c -31.50803,2.68115 -55.52461,2.66895 -54.73973,-0.0278 6.37936,-21.91875 22.88497,-74.31209 25.51783,-81.00056 0.63459,-1.61209 -2.79082,-3.60772 -14.34259,-8.356 -45.85742,-18.84932 -64.8616,-33.641 -74.30498,-57.83435 -15.66891,-40.14276 12.65757,-107.80343 72.1135,-172.2504 l 9.60763,-10.41411 -13.47365,-13.61571 C 200.1278,535.6069 183.46539,498.85396 175.63171,440.69389 l -0.58914,-4.37393 -20.09632,-0.87258 C 74.311528,431.94629 29.851869,404.451 48.732376,369.76131 61.059664,347.11201 108.09094,317.473 178.82491,287.77728 c 9.43157,-3.9596 17.72112,-7.19926 18.42119,-7.19926 0.7001,0 4.01881,-9.87397 7.37491,-21.94214 24.75238,-89.00659 60.4914,-170.264541 86.77702,-197.300479 29.2058,-30.039451 78.86663,-35.202159 144.1929,-14.990188 24.02519,7.433399 73.40261,27.442164 83.90064,33.99829 2.10433,1.314182 4.81993,-0.05436 16.49239,-8.31107 49.89212,-35.292281 76.05512,-44.243378 102.2769,-34.991794 25.81321,9.107426 71.10802,73.210271 116.71222,165.175291 7.31665,14.75466 14.37533,27.2718 15.686,27.81585 1.31066,0.54405 12.54891,3.96647 24.9739,7.60538 56.2246,16.46651 108.02067,41.42294 128.62287,61.97317 31.87759,31.79719 -5.78563,66.24549 -95.64656,87.48232 -17.06105,4.03203 -15.66559,2.59864 -13.96739,14.34717 4.63857,32.09059 -1.25239,74.07661 -15.00797,106.96485 -1.90279,4.5494 -3.16885,8.56239 -2.81347,8.91775 0.35537,0.35539 21.3746,-0.10999 46.70938,-1.03428 68.77634,-2.50901 74.64844,-1.74467 89.15372,11.60472 21.44543,19.7365 21.93836,30.56125 4.23323,92.96019 -12.66145,44.62331 -46.30005,163.50173 -52.49735,185.52504 -12.01039,42.6813 -29.68587,54.66563 -85.26752,57.81311 l -28.81304,1.63163 -1.09599,5.28888 c -2.72619,13.15574 -17.43644,35.21431 -33.38631,50.06401 l -9.40816,8.75923 4.94176,0.0675 c 42.16053,0.57544 117.54173,16.99398 122.75609,26.73711 13.17579,24.61919 -236.05204,46.03644 -444.19172,38.17142 z M 513.45131,936.9622 c 40.71363,-12.56387 73.6625,-48.3193 58.49943,-63.48236 -11.01607,-11.01608 -37.77775,-0.50764 -63.00736,24.74095 -31.78838,31.8123 -29.75193,49.31371 4.50793,38.74141 z M 683.6394,921.27322 c 28.16116,-14.02478 52.64879,-41.50767 47.67754,-53.5093 -6.27967,-15.16046 -33.69892,-6.20542 -58.52184,19.11305 -33.51363,34.18267 -27.43581,53.46047 10.8443,34.39625 z m -231.54536,-7.14335 c 2.08765,-3.27203 8.60851,-11.33564 14.49078,-17.91915 l 10.69504,-11.97 -6.72518,-1.60625 c -13.60694,-3.24991 -45.934,-11.94917 -77.44086,-20.83949 -84.99032,-23.98175 -76.07005,-22.47928 -87.02959,-14.65871 -13.05517,9.31597 -26.51152,25.32087 -26.51152,31.53262 0,0.52644 22.71442,0.5708 50.47648,0.0985 46.34808,-0.78836 87.38842,0.24854 82.2449,2.07795 -1.16484,0.4143 -6.56547,2.18493 -12.0014,3.93474 -17.21868,5.54265 -50.46289,22.45572 -46.45176,23.63244 0.69851,0.20491 15.5658,2.00174 33.03843,3.99297 17.47263,1.99122 36.85136,4.47808 43.06385,5.52636 17.64547,2.97744 17.84741,2.94278 22.15083,-3.80205 z m 165.30725,-12.65582 c 0.37374,-0.97069 4.8893,-7.02 10.03458,-13.44288 5.14526,-6.42289 9.35628,-11.82353 9.35783,-12.0014 0.0141,-1.62208 -23.20457,1.46567 -24.1109,3.20639 -0.60646,1.16485 -2.98731,6.33404 -5.29076,11.4871 l -4.18811,9.36919 4.43911,1.42912 c 6.24074,2.00913 8.97151,1.99583 9.75825,-0.0474 z M 514.94247,848.23226 c 3.72689,-0.74438 19.48353,-2.04351 35.01476,-2.88697 31.01207,-1.6842 128.30749,-7.6846 159.54804,-9.83965 10.87186,-0.74995 39.14575,-2.65863 62.83087,-4.24149 70.51046,-4.71214 70.3556,-4.62729 81.22532,-44.50938 2.11649,-7.76561 8.5905,-30.63887 14.38671,-50.82946 5.79619,-20.19059 11.39929,-39.94346 12.4513,-43.89525 1.05201,-3.95181 8.93656,-31.73014 17.5212,-61.72965 23.80816,-83.19899 24.93182,-81.19032 -44.02792,-78.70497 -21.94757,0.791 -84.38047,3.00239 -138.73976,4.9142 -148.896,5.23666 -138.55905,4.35794 -147.31179,12.52239 -6.82844,6.36945 -10.41302,18.30495 -45.24665,150.65609 -5.41617,20.57887 -14.34149,54.03627 -19.83404,74.34979 -14.46571,53.4997 -13.17132,59.25811 12.18196,54.19435 z m 185.4694,-103.46991 c -13.82761,-4.65171 -22.84671,-21.51759 -19.93359,-37.27615 9.78102,-52.91034 81.14872,-58.30614 77.44805,-5.8555 -1.97527,27.99592 -33.10706,51.34251 -57.51446,43.13165 z m -244.25304,94.83368 -0.80088,-5.75382 -21.83749,-5.56479 c -21.87539,-5.57443 -28.52777,-8.30212 -20.44981,-8.38507 9.90152,-0.10167 46.22426,-4.04435 47.213,-5.12479 0.59701,-0.65237 1.51735,-3.61326 2.04522,-6.57974 l 0.95974,-5.39364 -6.08322,0.81671 c -8.54876,1.14771 -85.70628,6.26744 -111.60118,7.40522 l -21.55571,0.9471 7.7656,1.91237 c 13.7368,3.38284 77.7172,20.05006 98.83508,25.74703 26.80625,7.23151 26.51996,7.23181 25.50965,-0.0266 z M 289.98845,793.11871 c 5.06701,-23.57967 22.69119,-49.67124 38.63262,-57.1934 8.09143,-3.81804 8.30844,-3.61707 -11.27924,-10.44535 -17.88603,-6.23508 -53.30035,-19.85525 -53.30035,-20.49905 0,-0.20102 11.39008,-0.0667 25.3113,0.29868 l 25.31129,0.66416 0.45642,-4.77624 0.45643,-4.77623 5.32311,8.19038 c 4.60645,7.08768 6.60246,8.7692 14.82526,12.48947 17.99571,8.14185 21.05326,8.64366 8.09022,1.32777 -4.27109,-2.41046 -7.76562,-4.61413 -7.76562,-4.89705 0,-0.71016 5.06378,-12.25663 10.76835,-24.55416 2.61959,-5.64711 4.76288,-10.49 4.76288,-10.76201 0,-0.272 -2.70031,-0.92095 -6.0007,-1.44213 -21.83658,-3.44829 -62.39413,-15.72308 -85.06876,-25.74615 l -14.11929,-6.24128 -3.95157,4.63863 c -14.26576,16.74618 -35.28811,55.1709 -39.72806,72.61507 -7.69644,30.23865 0.72026,43.27699 40.14981,62.19617 12.03669,5.77548 26.33248,12.64494 31.76841,15.26547 13.11434,6.3221 12.58691,6.54027 15.35749,-6.35275 z m 70.67132,-7.81198 c 13.14717,-1.16563 24.16773,-2.38313 24.49016,-2.70555 1.88181,-1.88181 -2.24091,-10.2473 -7.91925,-16.06909 -15.16915,-15.55238 -34.23213,-12.18215 -46.47552,8.21661 -8.52629,14.20569 -9.07041,14.01359 29.90461,10.55803 z m 103.16976,-9.09841 c 6.31301,-0.20678 10.41481,1.7992 -35.29825,-17.26256 -9.31873,-3.8858 -22.24726,-9.54315 -28.73008,-12.57189 -6.4828,-3.02874 -11.9595,-5.5068 -12.17044,-5.5068 -0.21092,0 3.82245,4.29851 8.96307,9.55223 7.98022,8.15583 14.75527,18.68318 17.49232,27.18027 0.60758,1.88622 3.26517,1.94165 22.39253,0.46697 11.93673,-0.92029 24.2446,-1.75648 27.35085,-1.85822 z m 13.71843,-28.30841 c 0.37814,-2.57638 -0.1425,-4.90009 -1.31616,-5.87411 -1.06797,-0.88634 -19.22654,-22.20045 -40.35237,-47.36469 -21.12582,-25.16424 -40.06825,-47.64543 -42.09425,-49.9582 -3.0861,-3.5229 -6.40724,-4.89438 -20.47299,-8.45444 -24.17606,-6.11897 -48.52607,-14.49907 -65.05447,-22.38859 l -14.37885,-6.86349 -11.52755,10.70933 -11.52754,10.70931 4.75218,2.43803 c 13.82959,7.095 48.12015,17.00503 89.83315,25.96192 11.87647,2.5502 21.99904,5.04217 22.49459,5.53773 0.49556,0.49555 -3.03,9.94537 -7.83458,20.99961 -4.80455,11.05424 -8.73228,20.6103 -8.72827,21.23567 0.008,1.30112 1.06226,1.78631 54.36658,25.02842 21.74371,9.48084 41.75781,18.40415 44.47577,19.8296 6.52629,3.4227 6.63897,3.39904 7.36476,-1.5461 z m 17.33233,-64.77461 c 4.31018,-17.39158 7.58286,-31.87488 7.27266,-32.18509 -0.9153,-0.91528 -26.32203,1.29498 -26.32203,2.28989 0,0.5002 3.11722,3.9798 6.92716,7.73243 6.40958,6.31322 6.82127,7.1267 5.51008,10.88795 l -1.41704,4.06496 -8.72225,-7.6577 -8.72223,-7.65771 -2.32623,4.05321 c -2.27534,3.96454 -2.19571,4.30973 3.63955,15.77773 3.28117,6.4485 7.83746,17.93627 10.12506,25.52839 4.94084,16.39778 3.88784,18.11089 14.03527,-22.83406 z m -53.548,-9.12534 c 1.5548,-2.26797 1.11598,-3.57514 -3.23162,-9.62671 l -5.03071,-7.00237 -6.15214,6.03785 c -7.55595,7.4156 -7.63891,6.24753 1.19467,16.81934 l 7.34682,8.79247 2.03693,-6.19814 c 1.12032,-3.40897 2.84654,-7.37907 3.83605,-8.82244 z m -20.56662,-17.51822 c 2.71796,-3.64049 5.12564,-7.02656 5.3504,-7.52458 0.48666,-1.07833 -24.91499,-6.1863 -25.89427,-5.20704 -0.69428,0.6943 13.62638,19.26948 14.89615,19.32167 0.38829,0.016 2.92975,-2.94956 5.64772,-6.59005 z m 36.78132,-92.935 c 28.18504,-3.65675 87.3354,-19.90353 93.47998,-25.67607 9.92326,-9.32241 24.55431,-12.59993 63.03351,-14.12023 l 25.98117,-1.0265 -12.29512,-6.05556 c -18.33001,-9.02784 -36.28538,-13.43965 -54.49246,-13.38933 -23.16404,0.064 -31.36637,2.23492 -83.95701,22.22098 -35.82462,13.61446 -60.85829,19.08463 -87.41123,19.10049 -88.57682,0.0529 -157.03137,-56.98484 -160.09814,-133.39708 -0.84635,-21.08787 -2.22584,-20.09921 -4.68167,3.35529 -10.13838,96.82707 91.74352,165.68532 220.44097,148.98801 z m 313.12412,-51.76525 c 4.16355,-7.36598 13.05508,-31.01802 9.74824,-25.93097 -0.95125,1.46335 -4.65747,7.18166 -8.23607,12.70738 -3.57859,5.52571 -8.92628,12.42938 -11.88374,15.34149 l -5.3772,5.29473 h 5.77942 c 5.49865,0 5.98296,-0.3601 9.96935,-7.41263 z M 438.04722,500.48298 c 31.72179,-14.52274 41.85068,-54.5782 20.83873,-82.40834 -32.74543,-43.37101 -102.0128,-17.47021 -98.52726,36.84182 2.39149,37.26433 43.34957,61.28741 77.68853,45.56652 z m 275.46701,-0.83887 c 32.93013,-16.21143 40.7723,-59.45639 15.65209,-86.31194 -24.27899,-25.95619 -69.57594,-21.19977 -87.37676,9.17503 -27.08226,46.21238 23.66989,100.79422 71.72467,77.13691 z M 139.08572,370.16902 c 83.26685,-8.09661 174.98248,-16.01615 228.02663,-19.68987 17.47262,-1.21011 44.1581,-3.12651 59.30104,-4.25866 64.48122,-4.82091 171.20644,-12.27189 242.14592,-16.90536 41.93431,-2.73896 86.09241,-5.62301 98.12911,-6.40899 12.0367,-0.78598 44.05961,-2.67899 71.162,-4.20669 27.10241,-1.5277 49.54613,-3.04668 49.87497,-3.37549 3.8689,-3.8689 -88.50183,-43.14819 -125.97872,-53.57059 -51.12253,-14.21729 -133.75541,-20.39168 -202.6119,-15.13935 -79.17748,6.03962 -115.43558,10.11058 -164.4898,18.46847 -49.24575,8.39051 -49.03571,8.32765 -65.65472,19.65238 -13.78829,9.39578 -35.14322,20.66308 -51.34796,27.09223 -23.76978,9.43053 -39.45408,18.42944 -49.87329,28.61487 l -10.4998,10.26422 -17.9128,1.80501 c -9.85203,0.99275 -34.48232,3.8785 -54.73399,6.41276 l -36.82119,4.60776 -8.00757,5.31672 c -4.40416,2.9242 -8.007573,5.40241 -8.007573,5.50713 0,0.32082 10.531983,-0.61138 47.299643,-4.18655 z M 354.76834,183.26903 c 98.05773,-21.61537 225.35387,-27.29309 316.61484,-14.12181 10.87185,1.5691 20.8789,3.18173 22.23789,3.58367 3.90594,1.15521 3.22251,-0.39856 -10.34246,-23.5133 C 659.83535,109.27027 640.52502,82.417571 629.49595,74.428167 615.11696,64.01208 606.29002,67.959935 546.05897,111.74558 l -15.19369,11.04523 -25.0463,-11.36967 C 409.79633,67.832042 358.53227,58.639321 328.00805,79.535893 c -7.65319,5.239303 -18.63087,17.385868 -11.56545,12.796925 17.43117,-11.32143 54.15598,-9.850807 66.2761,2.65396 11.67931,12.050002 5.84158,24.397662 -35.86746,75.864822 -6.71729,8.28885 -12.21327,15.40105 -12.21327,15.80486 0,1.0636 -0.26029,1.1074 20.13037,-3.38743 z" />
  <g
     inkscape:groupmode="layer"
     id="layer2"
     inkscape:label="Layer 1" />
</svg>
